<?xml version="1.0" encoding="utf-8"?>
<!-- Generator: Adobe Illustrator 16.0.0, SVG Export Plug-In . SVG Version: 6.00 Build 0)  -->
<!DOCTYPE svg PUBLIC "-//W3C//DTD SVG 1.1//EN" "http://www.w3.org/Graphics/SVG/1.1/DTD/svg11.dtd">
<svg version="1.1" id="Layer_1" xmlns="http://www.w3.org/2000/svg" xmlns:xlink="http://www.w3.org/1999/xlink" x="0px" y="0px"
	 width="122px" height="122px" viewBox="-1 -1 122 122" enable-background="new -1 -1 122 122" xml:space="preserve">
<g>
	<circle cx="80.505" cy="66.394" r="4.921"/>
	<circle cx="39.497" cy="66.394" r="4.921"/>
	<path d="M60.081,80.554c-2.959,0-5.914-1.143-8.14-3.421c-0.698-0.714-0.687-1.859,0.029-2.558c0.713-0.696,1.859-0.685,2.558,0.03
		c2.99,3.06,7.914,3.117,10.977,0.127c0.715-0.697,1.861-0.686,2.556,0.028c0.698,0.716,0.686,1.861-0.028,2.56
		C65.822,79.479,62.95,80.554,60.081,80.554z"/>
	<g>
		<path d="M116.956,75.227l-8.541-4.841l9.475-6.443c1.319-0.9,2.11-2.388,2.11-3.985c0-1.591-0.789-3.086-2.103-3.985l-9.449-6.45
			l8.483-4.739c2.327-1.295,3.157-4.238,1.857-6.558c-1.296-2.327-4.232-3.158-6.56-1.862l-10.176,5.677
			C97.418,31.215,88.72,22.528,77.888,17.91l5.731-10.116c1.315-2.32,0.502-5.262-1.818-6.577c-2.316-1.308-5.258-0.495-6.571,1.821
			l-4.842,8.542l-6.443-9.47C63.044,0.79,61.557,0,59.959,0c0,0,0,0-0.005,0c-1.593,0-3.081,0.784-3.981,2.104l-6.449,9.446
			l-4.737-8.488c-1.303-2.32-4.24-3.152-6.565-1.856c-2.32,1.297-3.152,4.237-1.856,6.558l5.679,10.17
			c-10.82,4.642-19.507,13.34-24.131,24.173L7.795,36.382c-2.319-1.315-5.262-0.501-6.575,1.814
			c-1.315,2.321-0.494,5.262,1.819,6.577l8.543,4.833l-9.476,6.451C0.79,56.957,0,58.445,0,60.035
			c-0.006,1.599,0.784,3.094,2.101,3.992l9.451,6.449l-8.487,4.739c-2.327,1.296-3.159,4.232-1.856,6.559
			c0.878,1.579,2.52,2.473,4.213,2.473c0.796,0,1.604-0.199,2.344-0.615l10.17-5.679c4.643,10.827,13.34,19.514,24.173,24.138
			l-5.73,10.115c-1.31,2.315-0.495,5.263,1.819,6.57c2.32,1.313,5.263,0.5,6.577-1.814l4.833-8.541l6.443,9.469
			c0.899,1.32,2.396,2.11,3.988,2.11h0.004c1.592,0,3.081-0.79,3.985-2.104l6.444-9.446l4.738,8.481
			c1.304,2.327,4.24,3.158,6.564,1.863c2.326-1.302,3.159-4.239,1.858-6.567l-5.68-10.17c10.828-4.64,19.514-13.34,24.132-24.172
			l10.121,5.731c0.748,0.43,1.568,0.628,2.368,0.628c1.682,0,3.316-0.879,4.203-2.447C120.091,79.483,119.277,76.541,116.956,75.227
			z M105.726,60.555l-9.145,6.22c-0.613,0.416-1.114,0.966-1.471,1.592c-0.186,0.79-0.397,1.566-0.639,2.339
			C90.957,82.031,82.018,90.973,70.684,94.48c-0.687,0.212-1.387,0.403-2.092,0.573c-0.67,0.356-1.249,0.874-1.688,1.52l-6.246,9.15
			l-0.608,0.892l-0.608-0.892l-6.222-9.145c-0.415-0.614-0.965-1.108-1.592-1.471c-0.79-0.188-1.566-0.397-2.331-0.639
			c-11.328-3.509-20.274-12.455-23.776-23.789c-0.217-0.699-0.409-1.404-0.584-2.114c-0.361-0.656-0.875-1.231-1.514-1.664
			l-9.151-6.252l-0.884-0.603l0.884-0.603l9.146-6.221c0.613-0.417,1.114-0.965,1.471-1.591c0.188-0.79,0.397-1.568,0.639-2.333
			c3.509-11.327,12.447-20.267,23.771-23.782c0.698-0.211,1.409-0.41,2.127-0.584c0.657-0.355,1.235-0.874,1.671-1.513l6.252-9.151
			l0.602-0.886l0.604,0.886l6.226,9.146c0.418,0.608,0.959,1.109,1.573,1.464c0.809,0.192,1.599,0.41,2.38,0.651
			c0.008,0,0.008,0,0.008,0c11.315,3.526,20.236,12.465,23.739,23.786c0.218,0.693,0.41,1.398,0.584,2.116
			c0.362,0.65,0.874,1.224,1.514,1.663l9.15,6.252l0.886,0.604L105.726,60.555z"/>
	</g>
</g>
</svg>
