<?xml version="1.0" encoding="utf-8"?>
<!-- Generator: Adobe Illustrator 16.0.0, SVG Export Plug-In . SVG Version: 6.00 Build 0)  -->
<!DOCTYPE svg PUBLIC "-//W3C//DTD SVG 1.1//EN" "http://www.w3.org/Graphics/SVG/1.1/DTD/svg11.dtd">
<svg version="1.1" id="Layer_1" xmlns="http://www.w3.org/2000/svg" xmlns:xlink="http://www.w3.org/1999/xlink" x="0px" y="0px"
	 width="122px" height="122px" viewBox="0 0 122 122" enable-background="new 0 0 122 122" xml:space="preserve">
<g>
	<g>
		<g id="XMLID_1_">
			<g>
				<path fill="#FFFFFF" d="M105.73,59.35l0.89,0.6l-0.89,0.61l-9.15,6.22c-0.61,0.41-1.11,0.96-1.47,1.59
					c-0.19,0.79-0.4,1.56-0.641,2.34C90.96,82.03,82.02,90.97,70.68,94.48C70,94.69,69.3,94.88,68.59,95.05
					c-0.67,0.36-1.25,0.88-1.689,1.521l-6.24,9.149l-0.61,0.9l-0.61-0.9l-6.22-9.14c-0.41-0.62-0.97-1.11-1.59-1.47
					c-0.79-0.19-1.57-0.4-2.33-0.641c-11.33-3.51-20.28-12.46-23.78-23.79c-0.22-0.699-0.41-1.399-0.58-2.12
					c-0.36-0.649-0.88-1.229-1.52-1.659l-9.15-6.25l-0.88-0.6l0.88-0.61l9.15-6.22c0.61-0.41,1.11-0.96,1.47-1.59
					c0.19-0.79,0.4-1.57,0.64-2.33c3.51-11.33,12.45-20.27,23.77-23.78c0.7-0.21,1.41-0.41,2.13-0.59c0.65-0.35,1.23-0.87,1.67-1.51
					l6.25-9.15l0.6-0.89l0.61,0.89l6.22,9.14c0.42,0.61,0.96,1.11,1.569,1.47c0.811,0.19,1.601,0.41,2.381,0.65
					c0.01,0,0.01,0,0.01,0c11.319,3.53,20.24,12.46,23.74,23.78c0.22,0.7,0.409,1.4,0.579,2.12c0.37,0.65,0.881,1.23,1.521,1.66
					L105.73,59.35z"/>
				<path d="M116.96,75.23c2.32,1.31,3.13,4.25,1.82,6.569c-0.891,1.57-2.53,2.44-4.21,2.44c-0.801,0-1.62-0.19-2.36-0.62
					l-10.13-5.74c-4.61,10.84-13.3,19.54-24.13,24.18l5.68,10.171c1.3,2.319,0.47,5.26-1.86,6.56c-2.319,1.3-5.26,0.47-6.56-1.86
					l-4.74-8.479l-6.439,9.45c-0.91,1.31-2.4,2.1-3.99,2.1s-3.09-0.79-3.99-2.11l-6.44-9.47l-4.84,8.54
					c-1.31,2.32-4.25,3.13-6.57,1.82c-2.32-1.311-3.13-4.261-1.82-6.57l5.73-10.12c-10.83-4.62-19.53-13.31-24.17-24.14L7.77,83.63
					c-0.74,0.42-1.55,0.62-2.35,0.62c-1.69,0-3.33-0.9-4.21-2.48c-1.3-2.319-0.47-5.26,1.85-6.56l8.49-4.729L2.1,64.03
					c-1.32-0.9-2.11-2.4-2.1-3.99c0-1.6,0.79-3.08,2.11-3.98l9.47-6.45l-8.54-4.84c-2.31-1.31-3.14-4.25-1.82-6.57
					c1.31-2.32,4.26-3.13,6.57-1.82l10.12,5.73c4.63-10.84,13.32-19.53,24.13-24.18L36.37,7.76c-1.3-2.32-0.47-5.26,1.85-6.55
					c2.33-1.3,5.26-0.47,6.57,1.85l4.73,8.49l6.45-9.45c0.9-1.32,2.39-2.1,3.98-2.1c0.01,0,0.01,0,0.01,0c1.6,0,3.08,0.79,3.99,2.11
					l6.439,9.47l4.841-8.54c1.31-2.32,4.25-3.13,6.569-1.82c2.32,1.31,3.13,4.25,1.82,6.57l-5.73,10.12
					c10.83,4.62,19.53,13.3,24.16,24.13l10.181-5.68c2.329-1.29,5.26-0.46,6.56,1.87c1.3,2.32,0.47,5.26-1.86,6.55l-8.479,4.74
					l9.45,6.45c1.31,0.9,2.1,2.4,2.1,3.99s-0.79,3.08-2.11,3.98l-9.47,6.449L116.96,75.23z M105.73,60.56l0.89-0.61l-0.89-0.6
					l-9.15-6.26c-0.64-0.43-1.15-1.01-1.521-1.66c-0.17-0.72-0.359-1.42-0.579-2.12c-3.5-11.32-12.421-20.25-23.74-23.78
					c0,0,0,0-0.01,0c-0.78-0.24-1.57-0.46-2.381-0.65c-0.609-0.36-1.149-0.86-1.569-1.47l-6.22-9.14l-0.61-0.89l-0.6,0.89
					l-6.25,9.15c-0.44,0.64-1.02,1.16-1.67,1.51c-0.72,0.18-1.43,0.38-2.13,0.59C37.98,29.03,29.04,37.97,25.53,49.3
					c-0.24,0.76-0.45,1.54-0.64,2.33c-0.36,0.63-0.86,1.18-1.47,1.59l-9.15,6.22l-0.88,0.61l0.88,0.6l9.15,6.25
					c0.64,0.43,1.16,1.01,1.52,1.659c0.17,0.721,0.36,1.421,0.58,2.12c3.5,11.33,12.45,20.28,23.78,23.79
					c0.76,0.24,1.54,0.45,2.33,0.641c0.62,0.359,1.18,0.85,1.59,1.47l6.22,9.14l0.61,0.9l0.61-0.9l6.24-9.149
					c0.439-0.641,1.02-1.16,1.689-1.521c0.71-0.17,1.41-0.359,2.09-0.569C82.02,90.97,90.96,82.03,94.47,70.71
					c0.24-0.78,0.45-1.55,0.641-2.34c0.359-0.63,0.859-1.18,1.47-1.59L105.73,60.56z"/>
			</g>
			<g>
			</g>
		</g>
	</g>
	<circle cx="80.505" cy="66.394" r="4.921"/>
	<circle cx="39.497" cy="66.394" r="4.921"/>
	<path d="M60.081,80.555c-2.959,0-5.914-1.144-8.14-3.422c-0.698-0.714-0.687-1.859,0.029-2.558c0.713-0.696,1.859-0.685,2.558,0.03
		c2.99,3.06,7.914,3.117,10.977,0.127c0.716-0.697,1.861-0.687,2.556,0.027c0.698,0.717,0.687,1.861-0.027,2.561
		C65.822,79.479,62.95,80.555,60.081,80.555z"/>
</g>
</svg>
